{"title":"True.Story.Of.Puss.N.Boots.2011.WEBRip.AC3.XviD.BGAudio-API","uid":8033555,"size":1076213393,"categoryP":"video","categoryS":"movies","magnet":"?xt=urn:btih:ae74462814df7a2a69e965ff7a329ffeb23c9016&amp;dn=True.Story.Of.Puss.N.Boots.2011.WEBRip.AC3.XviD.BGAudio-API&amp;tr=udp%3A%2F%2Ftracker.openbittorrent.com%3A80&amp;tr=udp%3A%2F%2Fopen.demonii.com%3A1337&amp;tr=udp%3A%2F%2Ftracker.coppersurfer.tk%3A6969&amp;tr=udp%3A%2F%2Fexodus.desync.com%3A6969","seeders":3,"leechers":0,"uploader":"api731","files":3,"time":1358472391,"description":"General\nComplete name                            : True.Story.Of.Puss.N.Boots.20011.WEBRip.AC3.XviD.BG.Audio.API.avi\nFormat                                   : AVI\nFormat/Info                              : Audio Video Interleave\nFile size                                : 1.00 GiB\nDuration                                 : 1h 18mn\nOverall bit rate                         : 1 825 Kbps\nWriting application                      : Lavf52.84.0\n\nVideo\nID                                       : 0\nFormat                                   : xvid\nCodec ID                                 : xvid\nDuration                                 : 1h 18mn\nBit rate                                 : 1 654 Kbps\nWidth                                    : 1 280 pixels\nHeight                                   : 720 pixels\nDisplay aspect ratio                     : 16:9\nFrame rate                               : 25.000 fps\nBits/(Pixel*Frame)                       : 0.072\nStream size                              : 930 MiB (91%)\n\nAudio\nID                                       : 1\nFormat                                   : AC-3\nFormat/Info                              : Audio Coding 3\nMode extension                           : CM (complete main)\nFormat settings, Endianness              : Big\nCodec ID                                 : 2000\nDuration                                 : 1h 18mn\nBit rate mode                            : Constant\nBit rate                                 : 160 Kbps\nChannel(s)                               : 2 channels\nChannel positions                        : Front: L R\nSampling rate                            : 48.0 KHz\nBit depth                                : 16 bits\nCompression mode                         : Lossy\nStream size                              : 90.0 MiB (9%)\nAlignment                                : Aligned on interleaves\nInterleave, duration                     : 32 ms (0.80 video frame)\n\n","torrent":{"xt":"urn:btih:ae74462814df7a2a69e965ff7a329ffeb23c9016","amp;dn":"True.Story.Of.Puss.N.Boots.2011.WEBRip.AC3.XviD.BGAudio-API","amp;tr":["udp%3A%2F%2Ftracker.openbittorrent.com%3A80","udp%3A%2F%2Fopen.demonii.com%3A1337","udp%3A%2F%2Ftracker.coppersurfer.tk%3A6969","udp%3A%2F%2Fexodus.desync.com%3A6969"],"infoHash":"ae74462814df7a2a69e965ff7a329ffeb23c9016","infoHashBuffer":{"type":"Buffer","data":[174,116,70,40,20,223,122,42,105,233,101,255,122,50,159,254,178,60,144,22]},"announce":[],"urlList":[]}}